<svg width="1050" height="750" viewBox="0 0 1050 750" fill="none" xmlns="http://www.w3.org/2000/svg">
<path d="M60.2723 231.263L60.155 231.204C60.155 231.204 0 599.123 0 652.161C0 706.207 39.3897 750 87.9888 750C107.933 750 126.117 742.355 140.87 729.911L439.035 465.076L60.2723 231.263ZM989.728 231.263L989.845 231.204C989.845 231.204 1050 599.123 1050 652.161C1050 706.207 1010.61 750 962.011 750C942.067 750 923.883 742.355 909.13 729.911L610.965 465.076L989.728 231.263Z" fill="#31373D"/>
<path d="M759.704 503.714C897.39 503.714 1009.01 390.954 1009.01 251.857C1009.01 112.76 897.39 0 759.704 0C622.019 0 510.402 112.76 510.402 251.857C510.402 390.954 622.019 503.714 759.704 503.714Z" fill="#14171A"/>
<path d="M290.431 503.714C428.116 503.714 539.732 390.954 539.732 251.857C539.732 112.76 428.116 0 290.431 0C152.745 0 41.1289 112.76 41.1289 251.857C41.1289 390.954 152.745 503.714 290.431 503.714Z" fill="#14171A"/>
<path d="M290.434 0H759.707V499.862H290.434V0Z" fill="#14171A"/>
<path d="M381.281 629.643C462.272 629.643 527.929 563.313 527.929 481.491C527.929 399.67 462.272 333.34 381.281 333.34C300.289 333.34 234.633 399.67 234.633 481.491C234.633 563.313 300.289 629.643 381.281 629.643Z" fill="#14171A"/>
<path d="M668.734 629.643C749.725 629.643 815.382 563.313 815.382 481.491C815.382 399.67 749.725 333.34 668.734 333.34C587.743 333.34 522.086 399.67 522.086 481.491C522.086 563.313 587.743 629.643 668.734 629.643Z" fill="#14171A"/>
<path d="M668.747 570.382C717.342 570.382 756.735 530.584 756.735 481.491C756.735 432.398 717.342 392.601 668.747 392.601C620.152 392.601 580.758 432.398 580.758 481.491C580.758 530.584 620.152 570.382 668.747 570.382Z" fill="#67757F"/>
<path d="M381.29 570.382C429.884 570.382 469.278 530.584 469.278 481.491C469.278 432.398 429.884 392.601 381.29 392.601C332.695 392.601 293.301 432.398 293.301 481.491C293.301 530.584 332.695 570.382 381.29 570.382Z" fill="#67757F"/>
<path d="M752.644 168.448C778.61 168.448 799.66 147.183 799.66 120.951C799.66 94.7187 778.61 73.4534 752.644 73.4534C726.678 73.4534 705.629 94.7187 705.629 120.951C705.629 147.183 726.678 168.448 752.644 168.448Z" fill="#FFCC4D"/>
<path d="M752.644 360.274C778.61 360.274 799.66 339.009 799.66 312.777C799.66 286.545 778.61 265.28 752.644 265.28C726.678 265.28 705.629 286.545 705.629 312.777C705.629 339.009 726.678 360.274 752.644 360.274Z" fill="#77B255"/>
<path d="M657.672 264.359C683.637 264.359 704.687 243.094 704.687 216.862C704.687 190.63 683.637 169.365 657.672 169.365C631.706 169.365 610.656 190.63 610.656 216.862C610.656 243.094 631.706 264.359 657.672 264.359Z" fill="#50A5E6"/>
<path d="M847.508 264.359C873.473 264.359 894.523 243.094 894.523 216.862C894.523 190.63 873.473 169.365 847.508 169.365C821.542 169.365 800.492 190.63 800.492 216.862C800.492 243.094 821.542 264.359 847.508 264.359Z" fill="#DD2E44"/>
<path d="M324.789 161.868V97.6292C324.789 93.6607 323.228 89.8548 320.45 87.0486C317.673 84.2424 313.905 82.666 309.977 82.666H264.282C260.353 82.666 256.586 84.2424 253.808 87.0486C251.031 89.8548 249.47 93.6607 249.47 97.6292V161.868L287.129 199.942L324.789 161.868ZM249.441 269.425V333.664C249.441 341.931 256.069 348.627 264.252 348.627H309.948C313.876 348.627 317.643 347.051 320.421 344.244C323.199 341.438 324.759 337.632 324.759 333.664V269.425L287.1 231.351L249.441 269.425ZM403.979 177.572H340.392L302.703 215.647L340.392 253.721H403.979C407.904 253.714 411.667 252.135 414.443 249.33C417.219 246.526 418.782 242.724 418.79 238.758V192.565C418.79 188.593 417.23 184.784 414.454 181.973C411.677 179.163 407.909 177.579 403.979 177.572ZM233.896 177.572H170.28C166.354 177.579 162.591 179.158 159.815 181.963C157.039 184.767 155.477 188.569 155.469 192.535V238.699C155.469 246.966 162.097 253.662 170.28 253.662H233.867L271.555 215.587L233.896 177.572Z" fill="#8899A6"/>
</svg>
