<svg width="5668" height="1235" viewBox="0 0 5668 1235" fill="none" xmlns="http://www.w3.org/2000/svg">
<path d="M61.8066 974L17.1566 310.9H124.507L145.407 692.8L153.957 850.5H162.507L229.007 463.85H344.907L411.407 850.5H419.957L428.507 692.8L449.407 310.9H552.957L508.307 974H347.757L288.857 598.75H281.257L222.357 974H61.8066ZM837.586 985.4C798.319 985.4 763.486 979.383 733.086 967.35C702.686 955.317 677.036 938.217 656.136 916.05C635.869 893.883 620.352 867.283 609.586 836.25C598.819 804.583 593.436 769.117 593.436 729.85C593.436 689.95 598.819 654.167 609.586 622.5C620.986 590.833 636.819 563.917 657.086 541.75C677.352 519.583 701.736 502.483 730.236 490.45C759.369 478.417 791.986 472.4 828.086 472.4C863.552 472.4 895.536 478.417 924.036 490.45C952.536 501.85 976.602 518.317 996.236 539.85C1016.5 561.383 1032.02 587.35 1042.79 617.75C1053.55 648.15 1058.94 681.717 1058.94 718.45V758.35H715.036V770.7C715.036 806.167 726.119 834.983 748.286 857.15C770.452 878.683 801.486 889.45 841.386 889.45C871.786 889.45 897.752 883.433 919.286 871.4C941.452 858.733 959.819 842.267 974.386 822L1043.74 891.35C1026 917.317 1000.04 939.483 965.836 957.85C932.269 976.217 889.519 985.4 837.586 985.4ZM829.036 561.7C794.836 561.7 767.286 572.467 746.386 594C725.486 615.533 715.036 644.033 715.036 679.5V686.15H937.336V677.6C937.336 642.133 927.519 613.95 907.886 593.05C888.886 572.15 862.602 561.7 829.036 561.7ZM1147.86 271H1269.46V570.25H1276.11C1289.41 540.483 1307.46 516.733 1330.26 499C1353.7 481.267 1384.41 472.4 1422.41 472.4C1450.28 472.4 1475.61 477.783 1498.41 488.55C1521.85 498.683 1541.8 514.517 1558.26 536.05C1574.73 556.95 1587.4 583.55 1596.26 615.85C1605.13 648.15 1609.56 685.833 1609.56 728.9C1609.56 771.967 1605.13 809.65 1596.26 841.95C1587.4 874.25 1574.73 901.167 1558.26 922.7C1541.8 943.6 1521.85 959.433 1498.41 970.2C1475.61 980.333 1450.28 985.4 1422.41 985.4C1384.41 985.4 1353.7 976.533 1330.26 958.8C1307.46 941.067 1289.41 917.317 1276.11 887.55H1269.46V974H1147.86V271ZM1371.11 888.5C1406.58 888.5 1433.81 877.733 1452.81 856.2C1472.45 834.667 1482.26 805.217 1482.26 767.85V689.95C1482.26 652.583 1472.45 623.133 1452.81 601.6C1433.81 580.067 1406.58 569.3 1371.11 569.3C1343.25 569.3 1319.18 576.267 1298.91 590.2C1279.28 603.5 1269.46 624.083 1269.46 651.95V805.85C1269.46 833.717 1279.28 854.617 1298.91 868.55C1319.18 881.85 1343.25 888.5 1371.11 888.5Z" fill="#14171A"/>
<path d="M2438.44 881.85H2430.84C2425.14 895.15 2418.18 908.133 2409.94 920.8C2401.71 933.467 2391.58 944.55 2379.54 954.05C2367.51 963.55 2353.26 971.15 2336.79 976.85C2320.96 982.55 2302.59 985.4 2281.69 985.4C2214.56 985.4 2163.58 955.95 2128.74 897.05C2094.54 837.517 2077.44 754.233 2077.44 647.2C2077.44 534.467 2097.71 448.333 2138.24 388.8C2178.78 329.267 2241.16 299.5 2325.39 299.5C2358.33 299.5 2387.14 303.933 2411.84 312.8C2437.18 321.667 2458.71 334.017 2476.44 349.85C2494.81 365.683 2509.69 384.683 2521.09 406.85C2533.13 428.383 2542.63 451.817 2549.59 477.15L2435.59 509.45C2431.16 495.517 2426.09 481.9 2420.39 468.6C2415.33 455.3 2408.36 443.9 2399.49 434.4C2391.26 424.267 2381.13 416.35 2369.09 410.65C2357.06 404.317 2342.18 401.15 2324.44 401.15C2283.28 401.15 2253.83 417.617 2236.09 450.55C2218.36 483.483 2209.49 528.45 2209.49 585.45V691.85C2209.49 720.35 2211.39 746.633 2215.19 770.7C2219.63 794.133 2226.59 814.4 2236.09 831.5C2245.59 848.6 2257.94 861.9 2273.14 871.4C2288.34 880.267 2307.34 884.7 2330.14 884.7C2365.61 884.7 2392.53 874.25 2410.89 853.35C2429.26 831.817 2438.44 804.583 2438.44 771.65V717.5H2317.79V627.25H2549.59V974H2438.44V881.85ZM3006.17 974L2959.62 805.85H2762.97L2717.37 974H2591.97L2778.17 310.9H2951.07L3138.22 974H3006.17ZM2865.57 433.45H2857.97L2784.82 704.2H2938.72L2865.57 433.45ZM3536.85 667.15L3542.55 475.25H3534L3405.75 816.3L3277.5 475.25H3268.95L3274.65 667.15V974H3166.35V310.9H3314.55L3406.7 555.05H3413.35L3506.45 310.9H3645.15V974H3536.85V667.15ZM3740.73 974V310.9H4159.68V413.5H3865.18V586.4H4149.23V689H3865.18V871.4H4159.68V974H3740.73Z" fill="#828282"/>
<path d="M4678.27 473.263L4678.16 473.204C4678.16 473.204 4618 841.123 4618 894.161C4618 948.207 4657.39 992 4705.99 992C4725.93 992 4744.12 984.355 4758.87 971.911L5057.03 707.076L4678.27 473.263ZM5607.73 473.263L5607.84 473.204C5607.84 473.204 5668 841.123 5668 894.161C5668 948.207 5628.61 992 5580.01 992C5560.07 992 5541.88 984.355 5527.13 971.911L5228.97 707.076L5607.73 473.263Z" fill="#31373D"/>
<path d="M5377.7 745.714C5515.39 745.714 5627.01 632.954 5627.01 493.857C5627.01 354.76 5515.39 242 5377.7 242C5240.02 242 5128.4 354.76 5128.4 493.857C5128.4 632.954 5240.02 745.714 5377.7 745.714Z" fill="#14171A"/>
<path d="M4908.43 745.714C5046.12 745.714 5157.73 632.954 5157.73 493.857C5157.73 354.76 5046.12 242 4908.43 242C4770.75 242 4659.13 354.76 4659.13 493.857C4659.13 632.954 4770.75 745.714 4908.43 745.714Z" fill="#14171A"/>
<path d="M4908.43 242H5377.71V741.862H4908.43V242Z" fill="#14171A"/>
<path d="M4999.28 871.643C5080.27 871.643 5145.93 805.313 5145.93 723.492C5145.93 641.67 5080.27 575.34 4999.28 575.34C4918.29 575.34 4852.63 641.67 4852.63 723.492C4852.63 805.313 4918.29 871.643 4999.28 871.643Z" fill="#14171A"/>
<path d="M5286.73 871.643C5367.73 871.643 5433.38 805.313 5433.38 723.492C5433.38 641.67 5367.73 575.34 5286.73 575.34C5205.74 575.34 5140.09 641.67 5140.09 723.492C5140.09 805.313 5205.74 871.643 5286.73 871.643Z" fill="#14171A"/>
<path d="M5286.75 812.382C5335.34 812.382 5374.74 772.584 5374.74 723.491C5374.74 674.398 5335.34 634.601 5286.75 634.601C5238.15 634.601 5198.76 674.398 5198.76 723.491C5198.76 772.584 5238.15 812.382 5286.75 812.382Z" fill="#67757F"/>
<path d="M4999.29 812.382C5047.88 812.382 5087.28 772.584 5087.28 723.491C5087.28 674.398 5047.88 634.601 4999.29 634.601C4950.69 634.601 4911.3 674.398 4911.3 723.491C4911.3 772.584 4950.69 812.382 4999.29 812.382Z" fill="#67757F"/>
<path d="M5370.64 410.448C5396.61 410.448 5417.66 389.183 5417.66 362.951C5417.66 336.719 5396.61 315.454 5370.64 315.454C5344.68 315.454 5323.63 336.719 5323.63 362.951C5323.63 389.183 5344.68 410.448 5370.64 410.448Z" fill="#FFCC4D"/>
<path d="M5370.64 602.274C5396.61 602.274 5417.66 581.009 5417.66 554.777C5417.66 528.545 5396.61 507.279 5370.64 507.279C5344.68 507.279 5323.63 528.545 5323.63 554.777C5323.63 581.009 5344.68 602.274 5370.64 602.274Z" fill="#77B255"/>
<path d="M5275.67 506.359C5301.64 506.359 5322.69 485.094 5322.69 458.862C5322.69 432.63 5301.64 411.365 5275.67 411.365C5249.71 411.365 5228.66 432.63 5228.66 458.862C5228.66 485.094 5249.71 506.359 5275.67 506.359Z" fill="#50A5E6"/>
<path d="M5465.51 506.359C5491.47 506.359 5512.52 485.094 5512.52 458.862C5512.52 432.63 5491.47 411.365 5465.51 411.365C5439.54 411.365 5418.49 432.63 5418.49 458.862C5418.49 485.094 5439.54 506.359 5465.51 506.359Z" fill="#DD2E44"/>
<path d="M4942.79 403.868V339.629C4942.79 335.661 4941.23 331.855 4938.45 329.049C4935.67 326.242 4931.91 324.666 4927.98 324.666H4882.28C4878.35 324.666 4874.59 326.242 4871.81 329.049C4869.03 331.855 4867.47 335.661 4867.47 339.629V403.868L4905.13 441.943L4942.79 403.868ZM4867.44 511.425V575.664C4867.44 583.931 4874.07 590.627 4882.25 590.627H4927.95C4931.88 590.627 4935.64 589.051 4938.42 586.244C4941.2 583.438 4942.76 579.632 4942.76 575.664V511.425L4905.1 473.351L4867.44 511.425ZM5021.98 419.572H4958.39L4920.7 457.647L4958.39 495.721H5021.98C5025.9 495.714 5029.67 494.135 5032.44 491.33C5035.22 488.526 5036.78 484.724 5036.79 480.758V434.565C5036.79 430.593 5035.23 426.784 5032.45 423.973C5029.68 421.163 5025.91 419.58 5021.98 419.572ZM4851.9 419.572H4788.28C4784.35 419.58 4780.59 421.159 4777.82 423.963C4775.04 426.767 4773.48 430.569 4773.47 434.535V480.699C4773.47 488.966 4780.1 495.662 4788.28 495.662H4851.87L4889.56 457.587L4851.9 419.572Z" fill="#8899A6"/>
</svg>
