<svg width="6183" height="1599" viewBox="0 0 6183 1599" fill="none" xmlns="http://www.w3.org/2000/svg">
<rect width="6183" height="1599" rx="250" fill="white"/>
<path d="M319.807 1156L275.157 492.9H382.507L403.407 874.8L411.957 1032.5H420.507L487.007 645.85H602.907L669.407 1032.5H677.957L686.507 874.8L707.407 492.9H810.957L766.307 1156H605.757L546.857 780.75H539.257L480.357 1156H319.807ZM1095.59 1167.4C1056.32 1167.4 1021.49 1161.38 991.086 1149.35C960.686 1137.32 935.036 1120.22 914.136 1098.05C893.869 1075.88 878.352 1049.28 867.586 1018.25C856.819 986.583 851.436 951.117 851.436 911.85C851.436 871.95 856.819 836.167 867.586 804.5C878.986 772.833 894.819 745.917 915.086 723.75C935.352 701.583 959.736 684.483 988.236 672.45C1017.37 660.417 1049.99 654.4 1086.09 654.4C1121.55 654.4 1153.54 660.417 1182.04 672.45C1210.54 683.85 1234.6 700.317 1254.24 721.85C1274.5 743.383 1290.02 769.35 1300.79 799.75C1311.55 830.15 1316.94 863.717 1316.94 900.45V940.35H973.036V952.7C973.036 988.167 984.119 1016.98 1006.29 1039.15C1028.45 1060.68 1059.49 1071.45 1099.39 1071.45C1129.79 1071.45 1155.75 1065.43 1177.29 1053.4C1199.45 1040.73 1217.82 1024.27 1232.39 1004L1301.74 1073.35C1284 1099.32 1258.04 1121.48 1223.84 1139.85C1190.27 1158.22 1147.52 1167.4 1095.59 1167.4ZM1087.04 743.7C1052.84 743.7 1025.29 754.467 1004.39 776C983.486 797.533 973.036 826.033 973.036 861.5V868.15H1195.34V859.6C1195.34 824.133 1185.52 795.95 1165.89 775.05C1146.89 754.15 1120.6 743.7 1087.04 743.7ZM1405.86 453H1527.46V752.25H1534.11C1547.41 722.483 1565.46 698.733 1588.26 681C1611.7 663.267 1642.41 654.4 1680.41 654.4C1708.28 654.4 1733.61 659.783 1756.41 670.55C1779.85 680.683 1799.8 696.517 1816.26 718.05C1832.73 738.95 1845.4 765.55 1854.26 797.85C1863.13 830.15 1867.56 867.833 1867.56 910.9C1867.56 953.967 1863.13 991.65 1854.26 1023.95C1845.4 1056.25 1832.73 1083.17 1816.26 1104.7C1799.8 1125.6 1779.85 1141.43 1756.41 1152.2C1733.61 1162.33 1708.28 1167.4 1680.41 1167.4C1642.41 1167.4 1611.7 1158.53 1588.26 1140.8C1565.46 1123.07 1547.41 1099.32 1534.11 1069.55H1527.46V1156H1405.86V453ZM1629.11 1070.5C1664.58 1070.5 1691.81 1059.73 1710.81 1038.2C1730.45 1016.67 1740.26 987.217 1740.26 949.85V871.95C1740.26 834.583 1730.45 805.133 1710.81 783.6C1691.81 762.067 1664.58 751.3 1629.11 751.3C1601.25 751.3 1577.18 758.267 1556.91 772.2C1537.28 785.5 1527.46 806.083 1527.46 833.95V987.85C1527.46 1015.72 1537.28 1036.62 1556.91 1050.55C1577.18 1063.85 1601.25 1070.5 1629.11 1070.5Z" fill="#14171A"/>
<path d="M2696.44 1063.85H2688.84C2683.14 1077.15 2676.18 1090.13 2667.94 1102.8C2659.71 1115.47 2649.58 1126.55 2637.54 1136.05C2625.51 1145.55 2611.26 1153.15 2594.79 1158.85C2578.96 1164.55 2560.59 1167.4 2539.69 1167.4C2472.56 1167.4 2421.58 1137.95 2386.74 1079.05C2352.54 1019.52 2335.44 936.233 2335.44 829.2C2335.44 716.467 2355.71 630.333 2396.24 570.8C2436.78 511.267 2499.16 481.5 2583.39 481.5C2616.33 481.5 2645.14 485.933 2669.84 494.8C2695.18 503.667 2716.71 516.017 2734.44 531.85C2752.81 547.683 2767.69 566.683 2779.09 588.85C2791.13 610.383 2800.63 633.817 2807.59 659.15L2693.59 691.45C2689.16 677.517 2684.09 663.9 2678.39 650.6C2673.33 637.3 2666.36 625.9 2657.49 616.4C2649.26 606.267 2639.13 598.35 2627.09 592.65C2615.06 586.317 2600.18 583.15 2582.44 583.15C2541.28 583.15 2511.83 599.617 2494.09 632.55C2476.36 665.483 2467.49 710.45 2467.49 767.45V873.85C2467.49 902.35 2469.39 928.633 2473.19 952.7C2477.63 976.133 2484.59 996.4 2494.09 1013.5C2503.59 1030.6 2515.94 1043.9 2531.14 1053.4C2546.34 1062.27 2565.34 1066.7 2588.14 1066.7C2623.61 1066.7 2650.53 1056.25 2668.89 1035.35C2687.26 1013.82 2696.44 986.583 2696.44 953.65V899.5H2575.79V809.25H2807.59V1156H2696.44V1063.85ZM3264.17 1156L3217.62 987.85H3020.97L2975.37 1156H2849.97L3036.17 492.9H3209.07L3396.22 1156H3264.17ZM3123.57 615.45H3115.97L3042.82 886.2H3196.72L3123.57 615.45ZM3794.85 849.15L3800.55 657.25H3792L3663.75 998.3L3535.5 657.25H3526.95L3532.65 849.15V1156H3424.35V492.9H3572.55L3664.7 737.05H3671.35L3764.45 492.9H3903.15V1156H3794.85V849.15ZM3998.73 1156V492.9H4417.68V595.5H4123.18V768.4H4407.23V871H4123.18V1053.4H4417.68V1156H3998.73Z" fill="#828282"/>
<path d="M4936.27 655.263L4936.16 655.204C4936.16 655.204 4876 1023.12 4876 1076.16C4876 1130.21 4915.39 1174 4963.99 1174C4983.93 1174 5002.12 1166.36 5016.87 1153.91L5315.03 889.076L4936.27 655.263ZM5865.73 655.263L5865.84 655.204C5865.84 655.204 5926 1023.12 5926 1076.16C5926 1130.21 5886.61 1174 5838.01 1174C5818.07 1174 5799.88 1166.36 5785.13 1153.91L5486.97 889.076L5865.73 655.263Z" fill="#31373D"/>
<path d="M5635.7 927.714C5773.39 927.714 5885.01 814.954 5885.01 675.857C5885.01 536.76 5773.39 424 5635.7 424C5498.02 424 5386.4 536.76 5386.4 675.857C5386.4 814.954 5498.02 927.714 5635.7 927.714Z" fill="#14171A"/>
<path d="M5166.43 927.714C5304.12 927.714 5415.73 814.954 5415.73 675.857C5415.73 536.76 5304.12 424 5166.43 424C5028.75 424 4917.13 536.76 4917.13 675.857C4917.13 814.954 5028.75 927.714 5166.43 927.714Z" fill="#14171A"/>
<path d="M5166.43 424H5635.71V923.862H5166.43V424Z" fill="#14171A"/>
<path d="M5257.28 1053.64C5338.27 1053.64 5403.93 987.313 5403.93 905.491C5403.93 823.669 5338.27 757.34 5257.28 757.34C5176.29 757.34 5110.63 823.669 5110.63 905.491C5110.63 987.313 5176.29 1053.64 5257.28 1053.64Z" fill="#14171A"/>
<path d="M5544.73 1053.64C5625.73 1053.64 5691.38 987.313 5691.38 905.491C5691.38 823.669 5625.73 757.34 5544.73 757.34C5463.74 757.34 5398.09 823.669 5398.09 905.491C5398.09 987.313 5463.74 1053.64 5544.73 1053.64Z" fill="#14171A"/>
<path d="M5544.75 994.382C5593.34 994.382 5632.74 954.584 5632.74 905.491C5632.74 856.398 5593.34 816.601 5544.75 816.601C5496.15 816.601 5456.76 856.398 5456.76 905.491C5456.76 954.584 5496.15 994.382 5544.75 994.382Z" fill="#67757F"/>
<path d="M5257.29 994.382C5305.88 994.382 5345.28 954.584 5345.28 905.491C5345.28 856.398 5305.88 816.601 5257.29 816.601C5208.69 816.601 5169.3 856.398 5169.3 905.491C5169.3 954.584 5208.69 994.382 5257.29 994.382Z" fill="#67757F"/>
<path d="M5628.64 592.448C5654.61 592.448 5675.66 571.182 5675.66 544.95C5675.66 518.718 5654.61 497.453 5628.64 497.453C5602.68 497.453 5581.63 518.718 5581.63 544.95C5581.63 571.182 5602.68 592.448 5628.64 592.448Z" fill="#FFCC4D"/>
<path d="M5628.64 784.274C5654.61 784.274 5675.66 763.009 5675.66 736.777C5675.66 710.545 5654.61 689.279 5628.64 689.279C5602.68 689.279 5581.63 710.545 5581.63 736.777C5581.63 763.009 5602.68 784.274 5628.64 784.274Z" fill="#77B255"/>
<path d="M5533.67 688.359C5559.64 688.359 5580.69 667.094 5580.69 640.862C5580.69 614.63 5559.64 593.364 5533.67 593.364C5507.71 593.364 5486.66 614.63 5486.66 640.862C5486.66 667.094 5507.71 688.359 5533.67 688.359Z" fill="#50A5E6"/>
<path d="M5723.51 688.359C5749.47 688.359 5770.52 667.094 5770.52 640.862C5770.52 614.63 5749.47 593.364 5723.51 593.364C5697.54 593.364 5676.49 614.63 5676.49 640.862C5676.49 667.094 5697.54 688.359 5723.51 688.359Z" fill="#DD2E44"/>
<path d="M5200.79 585.868V521.629C5200.79 517.661 5199.23 513.855 5196.45 511.049C5193.67 508.242 5189.91 506.666 5185.98 506.666H5140.28C5136.35 506.666 5132.59 508.242 5129.81 511.049C5127.03 513.855 5125.47 517.661 5125.47 521.629V585.868L5163.13 623.943L5200.79 585.868ZM5125.44 693.425V757.664C5125.44 765.931 5132.07 772.627 5140.25 772.627H5185.95C5189.88 772.627 5193.64 771.051 5196.42 768.244C5199.2 765.438 5200.76 761.632 5200.76 757.664V693.425L5163.1 655.351L5125.44 693.425ZM5279.98 601.572H5216.39L5178.7 639.647L5216.39 677.721H5279.98C5283.9 677.714 5287.67 676.135 5290.44 673.33C5293.22 670.526 5294.78 666.724 5294.79 662.758V616.565C5294.79 612.593 5293.23 608.784 5290.45 605.973C5287.68 603.163 5283.91 601.58 5279.98 601.572ZM5109.9 601.572H5046.28C5042.35 601.58 5038.59 603.159 5035.82 605.963C5033.04 608.767 5031.48 612.569 5031.47 616.535V662.699C5031.47 670.966 5038.1 677.662 5046.28 677.662H5109.87L5147.56 639.587L5109.9 601.572Z" fill="#8899A6"/>
</svg>
